<?xml version="1.0" standalone="no"?><!DOCTYPE svg PUBLIC "-//W3C//DTD SVG 1.1//EN" "http://www.w3.org/Graphics/SVG/1.1/DTD/svg11.dtd"><svg t="1565686021989" class="icon" viewBox="0 0 1076 1024" version="1.1" xmlns="http://www.w3.org/2000/svg" p-id="26377" xmlns:xlink="http://www.w3.org/1999/xlink" width="33.625" height="32"><defs><style type="text/css"></style></defs><path d="M1062.878879 507.780615C1061.559833 809.703286 858.669742 1012.905782 559.645501 1011.899142 254.442571 1010.85779-1.400271 774.661789 0.005554 495.214967 1.359312 228.507351 265.498259-0.121491 572.107014 0c290.259528 0.156203 492.073555 208.964645 490.771865 507.797971" fill="#0091C8" p-id="26378"></path><path d="M554.942061 371.346141c30.251277-5.015846 48.839411-27.526406 71.22848-45.350882 54.549492-43.441736 115.364451-40.439171 164.915453 1.59674 50.974183 43.285534 63.973728 105.263336 18.987319 161.114518-68.225915 84.696633-142.231334 164.741894-214.431743 246.175624-17.963323 20.254297-37.853147 26.780104-54.757762-2.551312-18.136882-93.322499-11.454873-187.651639-10.777993-281.68573 0.20827-28.376843 1.336402-57.656192 24.81889-79.298958" fill="#AEDEEE" p-id="26379"></path><path d="M554.942061 371.346141c-5.033202 120.328229 20.931176 241.854013-14.058253 361.002043-61.509194-68.035001-123.591132-135.549325-184.406092-204.209136-69.944146-78.951841-74.803789-138.25684-17.841832-195.184086 51.251877-51.234521 115.451231-45.125255 189.1616 17.702985 8.660578 7.341532 18.084814 13.815271 27.144577 20.688194" fill="#FDFEFE" p-id="26380"></path></svg>