<?xml version="1.0" standalone="no"?><!DOCTYPE svg PUBLIC "-//W3C//DTD SVG 1.1//EN" "http://www.w3.org/Graphics/SVG/1.1/DTD/svg11.dtd"><svg t="1565685358316" class="icon" viewBox="0 0 1024 1024" version="1.1" xmlns="http://www.w3.org/2000/svg" p-id="4620" xmlns:xlink="http://www.w3.org/1999/xlink" width="32" height="32"><defs><style type="text/css"></style></defs><path d="M753.1 960.4H201.8c-40.6 0-73.8-33.2-73.8-73.8V138.2c0-40.6 33.2-73.8 73.8-73.8h551.3c40.6 0 73.8 33.2 73.8 73.8v748.5c0 40.5-33.2 73.7-73.8 73.7z" fill="#E5ECFF" p-id="4621"></path><path d="M826.9 225.7v-66.6c0-37.3-30.5-67.8-67.8-67.8H195.9c-37.3 0-67.8 30.5-67.8 67.8v66.6h698.8z" fill="#83A4FF" p-id="4622"></path><path d="M826.9 198.8v-66.6c0-37.3-30.5-67.8-67.8-67.8H195.9c-37.3 0-67.8 30.5-67.8 67.8v66.6h698.8z" fill="#5B79FB" p-id="4623"></path><path d="M217.6 324.2h259.8V369H217.6z" fill="#83A4FF" p-id="4624"></path><path d="M217.6 431.8h439v44.8h-439z" fill="#C7D8FF" p-id="4625"></path><path d="M217.6 539.3h259.8v44.8H217.6z" fill="#83A4FF" p-id="4626"></path><path d="M217.6 646.8h439v44.8h-439z" fill="#C7D8FF" p-id="4627"></path><path d="M244.5 826v66.6c0 31.5-21.8 58.1-51.1 65.6 5.9 1.4 12 2.2 18.4 2.2h621c41.1 0 74.8-30.5 74.8-67.8V826H244.5z" fill="#5B79FB" p-id="4628"></path><path d="M754.1 225.7c3.6 8.2 5.6 17.3 5.6 26.9 0 37.1-30.1 67.2-67.2 67.2s-67.2-30.1-67.2-67.2c0-9.6 2-18.6 5.6-26.9h-28.6c-2.5 8.5-4 17.5-4 26.9 0 51.9 42.2 94.1 94.1 94.1 51.9 0 94.1-42.2 94.1-94.1 0-9.3-1.4-18.4-4-26.9h-28.4z" fill="#FF7E71" p-id="4629"></path><path d="M240 131.6m-22.4 0a22.4 22.4 0 1 0 44.8 0 22.4 22.4 0 1 0-44.8 0Z" fill="#FFFFFF" p-id="4630"></path><path d="M338.6 131.6m-22.4 0a22.4 22.4 0 1 0 44.8 0 22.4 22.4 0 1 0-44.8 0Z" fill="#FFFFFF" p-id="4631"></path><path d="M437.2 131.6m-22.4 0a22.4 22.4 0 1 0 44.8 0 22.4 22.4 0 1 0-44.8 0Z" fill="#FFFFFF" p-id="4632"></path></svg>