<?xml version="1.0" standalone="no"?><!DOCTYPE svg PUBLIC "-//W3C//DTD SVG 1.1//EN" "http://www.w3.org/Graphics/SVG/1.1/DTD/svg11.dtd"><svg t="1565685922237" class="icon" viewBox="0 0 1024 1024" version="1.1" xmlns="http://www.w3.org/2000/svg" p-id="22320" xmlns:xlink="http://www.w3.org/1999/xlink" width="32" height="32"><defs><style type="text/css"></style></defs><path d="M819.67685 254.970437v274.550201H177.51838c-1.156001 12.210259-1.806251 24.637268-1.806251 37.136527a397.375291 397.375291 0 1 0 643.964721-311.758978z" fill="#E9EAEB" p-id="22321"></path><path d="M835.571862 545.4879H453.947082v-31.790024h349.834757V116.178085H167.764623V513.697876h127.232343v31.790024H135.9746V84.388062h699.597262V545.4879z" fill="#2A5082" p-id="22322"></path><path d="M326.786989 179.758132h318.044733v79.475058H326.786989z" fill="#A3D4FF" p-id="22323"></path><path d="M660.654484 275.200452H310.675228V163.86312h349.979256z m-317.900233-31.790024H628.57546v-47.685035H342.682001zM565.284414 306.990475h63.580047v31.790023h-63.580047zM453.947082 306.990475h63.580047v31.790023h-63.580047zM342.682001 306.990475h63.580047v31.790023h-63.580047zM565.284414 370.570521h63.580047v31.790024h-63.580047zM453.947082 370.570521h63.580047v31.790024h-63.580047zM342.682001 370.570521h63.580047v31.790024h-63.580047zM453.947082 434.222818h63.580047v31.790023h-63.580047zM565.284414 434.222818h63.580047v31.790023h-63.580047z" fill="#2A5082" p-id="22324"></path><path d="M88.217315 116.178085h-31.790024V4.840754h111.337332v31.790023H88.217315v79.547308zM167.764623 624.962958H56.427291V513.697876h31.790024v79.475058h79.547308v31.790024zM915.11917 625.035208h-111.337331V593.172934h79.547308v-79.475058h31.790023v111.337332zM915.11917 116.178085h-31.790023V36.630777h-79.547308V4.840754h111.337331v111.337331z" fill="#BCC0C4" p-id="22325"></path><path d="M565.284414 640.930219h-31.790023a33.379524 33.379524 0 0 0-31.790024-31.790023H469.625344a42.844281 42.844281 0 0 0-31.790023-15.895011h-31.790024V481.907853a31.790023 31.790023 0 1 0-63.580046 0v238.425175l-21.241516 20.374515-41.54378-64.374798c-25.432019-35.041276-64.374797-15.389261-64.374797 0 0 0 48.263035 153.964863 55.12679 164.730121 11.126508 17.412263 56.138291 56.499541 56.138291 70.082551v63.580047h238.425175v-47.685035c0-21.675016 31.790023-47.323785 31.790023-79.475058v-174.845128a33.379524 33.379524 0 0 0-31.501023-31.790024z" fill="#FFFFFF" p-id="22326"></path><path d="M581.179426 974.797714H549.100402v-47.685035c0-14.450011 7.658506-26.66027 15.822762-40.026529s15.967262-26.226769 15.967261-39.448529V672.720243a17.773513 17.773513 0 0 0-15.895011-15.895012h-47.685035v-15.895012a17.773513 17.773513 0 0 0-15.895012-15.895011h-40.243279l-4.696254-7.225006a28.322021 28.322021 0 0 0-18.423763-8.525506h-15.895012v79.475058H390.150286V481.907853a15.895012 15.895012 0 1 0-31.790024 0v245.65018l-39.882029 38.292528-51.731038-80.197559a26.443519 26.443519 0 0 0-22.831016-12.643759 20.663515 20.663515 0 0 0-11.632259 4.262753c21.675016 70.010301 47.251535 147.101108 51.947788 155.987864a259.16094 259.16094 0 0 0 21.675016 24.709518c23.409017 24.854018 36.630777 39.593029 36.630777 53.46504v63.580046H310.675228v-62.207295a229.682918 229.682918 0 0 0-27.960771-33.090525 245.65018 245.65018 0 0 1-25.648769-29.839272c-7.225005-10.982008-38.653778-110.325831-56.933041-168.559373l-0.722501-2.312002v-2.456501c0-14.01651 11.632259-27.23827 28.900021-32.873775a56.499541 56.499541 0 0 1 64.158047 23.481268l0.505751 0.7225 31.067522 48.190785 2.456502-2.312001V481.907853a47.685035 47.685035 0 0 1 95.44232 0v95.37007h15.895012a61.484795 61.484795 0 0 1 39.015028 15.895011h24.492768a49.852537 49.852537 0 0 1 44.867283 31.790024h18.785014a48.985536 48.985536 0 0 1 47.685035 47.685035v174.917378c0 22.180766-11.415508 40.96578-20.663515 55.993791a68.34855 68.34855 0 0 0-11.126509 23.481267z" fill="#2A5082" p-id="22327"></path><path d="M453.947082 609.067946h31.790024v79.475058h-31.790024zM517.599379 640.930219h31.790023v63.580047h-31.790023z" fill="#2A5082" p-id="22328"></path><path d="M294.924716 958.902702h302.149721v63.580047H294.924716z" fill="#A3D4FF" p-id="22329"></path><path d="M612.969449 1022.554999h-31.790023v-47.757285H310.891978v47.757285h-31.862274v-79.547308h333.939745v79.547308z" fill="#2A5082" p-id="22330"></path></svg>